# xmcd CD database file
#
# Track frame offsets:
#	187
#	13510
#	27285
#	46335
#	69072
#	82512
#	105675
#	126605
#	149607
#	164040
#
# Disc length: 2503 seconds
#
# Revision: 1
# Processed by: cddbd v1.5.2PL0 Copyright (c) Steve Scherf et al.
# Submitted via: CDex 1.60beta1-cs1
#
DISCID=8009c50a
DTITLE=SPIRAL LIFE - FURTHER ALONG
DYEAR=1993
DGENRE=Rock/Pop
TTITLE0=LIFE IS SPIRAL
TTITLE1=MOON RIDE
TTITLE2=ANOTHER DAY, ANOTHER NIGHT
TTITLE3=RASPBERRY BELLE
TTITLE4=GOING UNDERGROUND
TTITLE5=CHRONICLE
TTITLE6=THE ANSWER
TTITLE7=TURN! TURN! TURN!
TTITLE8=I DON'T BELIEVE
TTITLE9=FURTHER ALONG
EXTD=YEAR: 1993
EXTT0=
EXTT1=
EXTT2=
EXTT3=
EXTT4=
EXTT5=
EXTT6=
EXTT7=
EXTT8=
EXTT9=
PLAYORDER=
